<?xml version="1.0" standalone="no"?>
<!DOCTYPE svg PUBLIC "-//W3C//DTD SVG 20010904//EN"
 "http://www.w3.org/TR/2001/REC-SVG-20010904/DTD/svg10.dtd">
<svg version="1.0" xmlns="http://www.w3.org/2000/svg"
 width="96.000000pt" height="96.000000pt" viewBox="0 0 96.000000 96.000000"
 preserveAspectRatio="xMidYMid meet">
<metadata>
Created by potrace 1.10, written by Peter Selinger 2001-2011
</metadata>
<g transform="translate(0.000000,96.000000) scale(0.100000,-0.100000)"
fill="#000000" stroke="none">
<path d="M465 855 c-14 -13 -25 -33 -25 -45 0 -11 11 -32 25 -45 13 -14 33
-25 45 -25 27 0 70 43 70 70 0 12 -11 32 -25 45 -13 14 -33 25 -45 25 -11 0
-32 -11 -45 -25z m69 -24 c15 -17 15 -20 -2 -41 l-19 -23 -22 22 c-22 22 -22
24 -5 42 21 24 27 24 48 0z"/>
<path d="M346 718 c-13 -13 -52 -54 -85 -92 -94 -105 -81 -144 59 -187 41 -12
80 -28 86 -33 6 -6 21 -40 34 -76 27 -78 37 -92 63 -88 41 6 42 31 5 129 -34
90 -37 95 -86 124 -29 17 -52 32 -52 35 0 3 20 27 43 54 l44 49 97 -37 c100
-39 126 -41 126 -7 0 16 -29 34 -132 86 -72 36 -141 65 -154 65 -13 0 -34 -10
-48 -22z m125 -39 c64 -32 73 -45 23 -30 -20 6 -38 5 -52 -3 -32 -17 -94 -94
-86 -107 4 -8 -4 -9 -27 -5 -29 5 -31 5 -10 -4 13 -6 38 -23 56 -38 17 -15 41
-34 53 -42 22 -14 41 -55 60 -123 14 -51 -3 -37 -22 18 -17 52 -50 98 -61 87
-5 -4 -5 1 -2 11 4 11 3 16 -3 12 -12 -7 -119 22 -141 38 -9 7 -19 22 -23 35
-6 17 -3 22 11 22 12 0 14 3 6 8 -15 9 117 152 141 152 9 0 44 -14 77 -31z"/>
<path d="M648 500 c-77 -41 -105 -123 -70 -203 28 -63 63 -83 144 -81 35 1 66
2 71 3 4 1 12 13 17 27 6 14 19 28 29 31 48 12 52 118 7 177 -48 64 -128 82
-198 46z m132 -36 c79 -47 79 -161 0 -208 -103 -61 -225 60 -164 163 34 58
108 78 164 45z"/>
<path d="M700 360 c0 -13 7 -20 20 -20 13 0 20 7 20 20 0 13 -7 20 -20 20 -13
0 -20 -7 -20 -20z"/>
<path d="M192 403 c-18 -9 -45 -32 -60 -51 -54 -71 -29 -187 48 -227 24 -12
39 -13 76 -5 25 6 54 8 64 5 26 -8 87 56 95 99 14 73 -23 147 -88 176 -51 24
-92 25 -135 3z m128 -39 c79 -47 79 -161 0 -208 -78 -45 -180 14 -180 104 0
91 102 149 180 104z"/>
<path d="M240 259 c0 -14 5 -19 17 -17 26 5 29 38 4 38 -15 0 -21 -6 -21 -21z"/>
<path d="M865 272 c-6 -4 -26 -26 -44 -50 -29 -38 -37 -42 -60 -36 -43 12 -87
6 -137 -21 -53 -28 -65 -30 -110 -13 -29 10 -41 8 -106 -19 -40 -17 -102 -33
-138 -37 -36 -3 -87 -13 -115 -20 -45 -13 -12 -14 338 -15 l387 -1 0 110 c0
61 -1 110 -2 110 -2 0 -8 -4 -13 -8z m-18 -178 c-2 -3 -103 -3 -223 -2 l-219
3 38 18 c32 15 45 16 72 7 39 -13 71 -6 141 30 47 25 56 27 93 17 36 -10 44
-9 68 10 l28 20 3 -49 c2 -28 1 -52 -1 -54z"/>
</g>
</svg>
